<?xml version="1.0" encoding="utf-8"?>
<!-- Generator: Adobe Illustrator 15.1.0, SVG Export Plug-In . SVG Version: 6.00 Build 0)  -->
<!DOCTYPE svg PUBLIC "-//W3C//DTD SVG 1.1//EN" "http://www.w3.org/Graphics/SVG/1.1/DTD/svg11.dtd">
<svg version="1.1" id="Layer_1" xmlns="http://www.w3.org/2000/svg" xmlns:xlink="http://www.w3.org/1999/xlink" x="0px" y="0px"
	 width="283.46px" height="283.46px" viewBox="0 0 283.46 283.46" enable-background="new 0 0 283.46 283.46" xml:space="preserve">
<g>
	<polygon points="206.063,149.714 270.948,136.109 212.406,104.987 	"/>
	<g>
		<path d="M160.427,220.138c0,4.117-0.869,7.451-1.941,7.451h-0.113c-1.074,0-1.943-3.334-1.943-7.451v-35.074
			c0-4.113,0.869-7.449,1.943-7.449h0.113c1.072,0,1.941,3.336,1.941,7.449V220.138z"/>
		<path d="M158.428,224.029c-3.152,0-5.839,1.481-6.892,3.561h13.776C164.264,225.511,161.582,224.029,158.428,224.029z"/>
	</g>
	<g>
		<path fill="#4BC3C9" d="M247.932,101.319c-3.615-8.551-8.851-16.252-15.315-22.719c-6.468-6.466-14.168-11.702-22.72-15.316
			c-8.551-3.615-17.951-5.617-27.819-5.617c-9.867,0-19.268,2.002-27.817,5.617c-8.552,3.614-16.252,8.851-22.719,15.316
			c-5.471,5.474-9.991,11.866-13.464,18.874c-17.553,21.168-31.212,35.824-98.836,2.13c-4.156-2.068-9.201-0.382-11.269,3.774
			c-1.815,3.644-0.734,7.977,2.363,10.377c18.64,35.733,42.153,61.28,70.577,76.559c29.401,15.805,60.822,20.867,94.266,15.174
			c10.513-1.789,19.944-4.531,28.356-8.17c2.166-0.682,4.291-1.453,6.363-2.326c8.551-3.615,16.252-8.852,22.719-15.316
			c6.467-6.467,11.701-14.168,15.316-22.719s5.617-17.952,5.617-27.819C253.548,119.27,251.548,109.87,247.932,101.319z"/>
	</g>
	<g>
		<circle cx="201.278" cy="90.383" r="12.79"/>
		<circle fill="#FFFFFF" cx="205.779" cy="86.203" r="4.083"/>
	</g>
	<g>
		<path d="M155.701,132.743c-1.9-2.403-4.291-4.32-7.01-5.666c-2.713-1.327-5.756-2.093-8.964-2.229
			c-3.209-0.131-6.581,0.349-9.956,1.494c-3.376,1.141-6.438,2.818-9.082,4.876c-2.646,2.024-4.87,4.422-6.581,7.037
			c-1.443,2.189-2.495,4.543-3.138,6.969c-4.354,7.904-7.887,13.408-33.649,9.648c-1.584-0.209-3.18,0.678-3.562,1.965
			c-0.337,1.129,0.369,2.211,1.615,2.609c9.161,8.411,19.197,13.995,30.111,16.506c11.293,2.756,22.438,2.123,33.438-2.189
			c3.458-1.404,6.47-3.059,9.064-4.949c0.691-0.404,1.357-0.838,1.998-1.3c2.647-1.935,4.871-4.358,6.582-7.104
			c1.707-2.777,2.896-5.861,3.472-9.1c0.567-3.245,0.521-6.612-0.246-9.924C159.025,138.083,157.607,135.172,155.701,132.743z"/>
	</g>
</g>
</svg>
